<?xml version="1.0" standalone="no"?>
<!DOCTYPE svg PUBLIC "-//W3C//DTD SVG 20010904//EN"
 "http://www.w3.org/TR/2001/REC-SVG-20010904/DTD/svg10.dtd">
<svg version="1.0" xmlns="http://www.w3.org/2000/svg"
 width="204.000000pt" height="192.000000pt" viewBox="0 0 204.000000 192.000000"
 preserveAspectRatio="xMidYMid meet">

<g transform="translate(0.000000,192.000000) scale(0.100000,-0.100000)"
fill="#000000" stroke="none">
<path d="M855 1654 c-105 -23 -217 -82 -328 -174 -36 -30 -115 -136 -145 -195
-58 -114 -77 -197 -77 -330 0 -98 4 -134 23 -195 26 -82 59 -152 90 -190 17
-21 22 -22 36 -11 13 11 17 11 22 -3 5 -12 20 -16 63 -16 31 0 69 -7 85 -15
16 -9 31 -13 34 -10 3 3 0 5 -6 5 -7 0 -12 8 -12 18 0 9 4 13 8 7 7 -11 78
-45 90 -45 4 1 -7 9 -25 18 -85 46 -126 110 -144 224 -14 88 -6 436 10 490 18
57 71 119 126 147 49 26 50 26 320 26 l270 0 47 -27 c55 -33 100 -85 118 -136
7 -23 14 -115 17 -239 7 -289 -11 -372 -97 -445 -57 -50 -101 -59 -274 -61
-83 0 -115 -2 -71 -4 43 -2 85 -9 92 -15 14 -11 114 -3 148 14 20 9 20 9 1 -6
-11 -9 -27 -17 -35 -18 -37 -3 81 -14 152 -13 42 0 73 -1 67 -3 -5 -2 -10 -8
-10 -14 0 -6 6 -8 14 -5 8 3 16 1 19 -6 6 -18 92 69 142 142 26 39 57 105 76
161 94 281 8 587 -219 775 -171 142 -402 196 -627 149z"/>
<path d="M945 1320 c-167 -5 -183 -7 -218 -28 -69 -44 -72 -56 -72 -332 0
-276 4 -294 72 -340 l37 -25 256 0 256 0 41 27 c63 42 68 65 68 343 0 276 -4
291 -85 331 -54 27 -110 31 -355 24z m356 -80 c29 -16 25 -65 -6 -86 -56 -37
-116 31 -73 84 13 15 52 16 79 2z m-186 -69 c50 -23 103 -74 123 -121 21 -48
20 -146 -2 -191 -86 -180 -337 -184 -427 -7 -28 55 -28 152 1 208 57 111 195
161 305 111z"/>
<path d="M943 1080 c-121 -73 -80 -252 61 -267 153 -18 225 179 97 264 -43 29
-113 31 -158 3z"/>
<path d="M456 545 c-3 -8 -1 -15 4 -15 6 0 10 7 10 15 0 8 -2 15 -4 15 -2 0
-6 -7 -10 -15z"/>
<path d="M763 493 c9 -2 25 -2 35 0 9 3 1 5 -18 5 -19 0 -27 -2 -17 -5z"/>
</g>
</svg>
